<?xml version="1.0" ?><!DOCTYPE svg  PUBLIC '-//W3C//DTD SVG 1.1//EN'  'http://www.w3.org/Graphics/SVG/1.1/DTD/svg11.dtd'><svg enable-background="new 0 0 128 128" id="Layer_1" version="1.1" viewBox="0 0 128 128" xml:space="preserve" xmlns="http://www.w3.org/2000/svg" xmlns:xlink="http://www.w3.org/1999/xlink"><g><path d="M64,20.9c-23.8,0-43.1,19.3-43.1,43.1s19.3,43.1,43.1,43.1c23.8,0,43.1-19.3,43.1-43.1S87.8,20.9,64,20.9z M64,103.4   c-21.8,0-39.4-17.7-39.4-39.4S42.2,24.6,64,24.6c21.8,0,39.4,17.7,39.4,39.4S85.8,103.4,64,103.4z"/><path d="M57.9,50.4c0-4.4-3.5-7.9-7.9-7.9s-7.9,3.5-7.9,7.9c0,4.4,3.5,7.9,7.9,7.9S57.9,54.7,57.9,50.4z"/><path d="M78,58.3c4.4,0,7.9-3.5,7.9-7.9c0-4.4-3.5-7.9-7.9-7.9c-4.4,0-7.9,3.5-7.9,7.9C70.1,54.7,73.7,58.3,78,58.3z"/><path d="M90.3,69.4c-0.3-0.1-28.7-6.8-41.1,14.2c-0.6,1-0.3,2.3,0.7,2.9c0.3,0.2,0.7,0.3,1.1,0.3c0.7,0,1.4-0.4,1.8-1   C63.5,67.4,89,73.4,89.3,73.4c1.1,0.3,2.3-0.4,2.5-1.5C92.1,70.8,91.4,69.7,90.3,69.4z"/></g></svg>