<?xml version="1.0" ?><!DOCTYPE svg  PUBLIC '-//W3C//DTD SVG 1.1//EN'  'http://www.w3.org/Graphics/SVG/1.1/DTD/svg11.dtd'><svg enable-background="new 0 0 128 128" id="Layer_1" version="1.1" viewBox="0 0 128 128" xml:space="preserve" xmlns="http://www.w3.org/2000/svg" xmlns:xlink="http://www.w3.org/1999/xlink"><g><path d="M64,20.9c-23.8,0-43.1,19.3-43.1,43.1s19.3,43.1,43.1,43.1c23.8,0,43.1-19.3,43.1-43.1S87.8,20.9,64,20.9z M64,103.4   c-21.8,0-39.4-17.7-39.4-39.4S42.2,24.6,64,24.6c21.8,0,39.4,17.7,39.4,39.4S85.8,103.4,64,103.4z"/><path d="M57.9,50.4c0-4.4-3.5-7.9-7.9-7.9s-7.9,3.5-7.9,7.9c0,4.4,3.5,7.9,7.9,7.9S57.9,54.7,57.9,50.4z"/><path d="M78,42.5c-4.4,0-7.9,3.5-7.9,7.9c0,4.4,3.5,7.9,7.9,7.9c4.4,0,7.9-3.5,7.9-7.9C85.9,46,82.4,42.5,78,42.5z"/><path d="M78,77.1H50c-1,0-1.8,0.8-1.8,1.8s0.8,1.8,1.8,1.8H78c1,0,1.8-0.8,1.8-1.8S79.1,77.1,78,77.1z"/></g></svg>