<?xml version="1.0" ?><!DOCTYPE svg  PUBLIC '-//W3C//DTD SVG 1.1//EN'  'http://www.w3.org/Graphics/SVG/1.1/DTD/svg11.dtd'><svg enable-background="new 0 0 128 128" id="Layer_1" version="1.1" viewBox="0 0 128 128" xml:space="preserve" xmlns="http://www.w3.org/2000/svg" xmlns:xlink="http://www.w3.org/1999/xlink"><g><path d="M64,20.9c-23.8,0-43.1,19.3-43.1,43.1s19.3,43.1,43.1,43.1s43.1-19.3,43.1-43.1S87.8,20.9,64,20.9z M64,103.4   c-21.8,0-39.4-17.7-39.4-39.4S42.2,24.6,64,24.6c21.8,0,39.4,17.7,39.4,39.4S85.8,103.4,64,103.4z"/><path d="M64,72.5c-11.2,0-19,5.6-20.8,14.8c-0.1,0.6,0.1,1.3,0.6,1.7c0.3,0.3,0.8,0.4,1.2,0.4c0.2,0,0.4,0,0.6-0.1   c5-1.8,10.7-2.8,17-2.8c10.2,0,18.7,2.5,19.6,2.8c0.2,0.1,0.5,0.1,0.7,0.1c0,0,0,0,0,0c1,0,1.8-0.8,1.8-1.8c0-0.3-0.1-0.5-0.1-0.7   C82.7,77.9,75,72.5,64,72.5z"/><path d="M43.4,58.2c0.4,0.4,0.8,0.5,1.3,0.5s0.9-0.2,1.3-0.5l3.5-3.5l3.5,3.5c0.4,0.4,0.8,0.5,1.3,0.5c0.5,0,0.9-0.2,1.3-0.5   c0.7-0.7,0.7-1.9,0-2.6L52,52.1l3.5-3.5c0.7-0.7,0.7-1.9,0-2.6s-1.9-0.7-2.6,0l-3.5,3.5L46,46c-0.7-0.7-1.9-0.7-2.6,0   c-0.7,0.7-0.7,1.9,0,2.6l3.5,3.5l-3.5,3.5C42.7,56.3,42.7,57.5,43.4,58.2z"/><path d="M84.6,46c-0.7-0.7-1.9-0.7-2.6,0l-3.5,3.5L75,46c-0.7-0.7-1.9-0.7-2.6,0c-0.7,0.7-0.7,1.9,0,2.6l3.5,3.5l-3.5,3.5   c-0.7,0.7-0.7,1.9,0,2.6c0.4,0.4,0.8,0.5,1.3,0.5s0.9-0.2,1.3-0.5l3.5-3.5l3.5,3.5c0.4,0.4,0.8,0.5,1.3,0.5c0.5,0,0.9-0.2,1.3-0.5   c0.7-0.7,0.7-1.9,0-2.6l-3.5-3.5l3.5-3.5C85.3,47.9,85.3,46.7,84.6,46z"/></g></svg>